<?xml version="1.0" encoding="UTF-8"?>
<svg width="157px" height="44px" viewBox="0 0 157 44" version="1.1" xmlns="http://www.w3.org/2000/svg" xmlns:xlink="http://www.w3.org/1999/xlink">
    <!-- Generator: sketchtool 50.2 (55047) - http://www.bohemiancoding.com/sketch -->
    <defs></defs>
    <g id="Page-1" stroke="none" stroke-width="1" fill="none" fill-rule="evenodd">
        <g id="Logo" transform="translate(-100.000000, -860.000000)" fill="#0072CE">
            <g id="Group-6" transform="translate(100.000000, 860.000000)">
                <g id="Tallinn_logo_RGB_valge" fill-rule="nonzero">
                    <g id="Logod._Valge">
                        <g id="Tallinna_logo._Valge">
                            <g id="Tallinna_logo">
                                <path d="M22.64722,17.4671 C19.06565,16.49056 17.27487,15.26989 13.16422,14.5375 C8.97215,13.7644 5.06499,14.00855 0.09963,14.5375 L0.09963,19.5015 C5.75688,18.64704 13.89681,17.46706 20.12386,18.60634 C25.21131,19.5422 25.659,21.41388 30.29877,22.4311 L30.29877,18.56571 C27.7173338,18.462801 25.1533267,18.0946607 22.64722,17.4671 Z" id="Shape"></path>
                                <path d="M30.29875,24.8725 C26.75787,22.43114 23.46121,22.30908 20.08313,22.34979 C13.28629,22.47185 8.15813,23.32631 0.09961,24.66906 L0.09961,28.63969 C0.0962748541,29.0629954 0.116081067,29.4861667 0.15894,29.90731 C6.03481,28.85514 11.05506,28.12651 13.20494,27.80211 C19.35059,26.82557 25.69973,25.84903 30.2988,26.62211 L30.29875,24.8725 Z" id="Shape"></path>
                                <path d="M1.53787,34.14756 C1.82704766,34.6536895 2.15238657,35.1382823 2.51135,35.59756 C5.86673,39.84421 14.8842,43.19962 15.19916,43.30463 C15.51376,43.19977 24.53153,39.84431 27.88699,35.59756 C28.5727776,34.7255661 29.1303166,33.7599651 29.54267,32.73009 C29.8268255,31.9914872 30.0366168,31.2263882 30.16893,30.44615 C30.20288,30.23015 30.22793,30.02695 30.24645,29.83815 C29.36525,29.95449 2.28025,34.03783 1.53787,34.14756 Z" id="Shape"></path>
                                <path d="M12.79791,9.08519 C8.97214,8.6783 6.16391,7.74244 0.09962,6.84728 L0.09962,10.1838 C3.75470747,10.0365464 7.40977078,10.4761223 10.92572,11.4858 C12.10601,11.81133 14.4259,12.50305 15.32129,12.74717 C20.04245,14.04917 26.43229,14.04917 30.29876,14.49679 L30.29876,10.59068 C24.8043,9.61414 16.94927,9.53275 12.79791,9.08519 Z" id="Shape"></path>
                                <path d="M15.19947,0.78463 L15.19919,0.78463 C10.1125275,0.732026244 5.03946905,1.31985928 0.09962,2.53427 L0.09962,4.08044 L30.29876,6.68454 L30.29876,2.53427 C25.3590017,1.31988357 20.2860388,0.732050715 15.19947,0.78463 Z" id="Shape"></path>
                            </g>
                        </g>
                    </g>
                </g>
                <path d="M56.1972283,6.51619048 L56.1972283,8.76417633 L52.1883202,8.76417633 L52.1883202,19.8167734 L49.56567,19.8167734 L49.56567,8.76417633 L45.5567619,8.76417633 L45.5567619,6.51619048 L56.1972283,6.51619048 Z M61.9670586,9.92563568 C64.7208413,9.92563568 66.1258324,11.3306268 66.1258324,13.3538141 L66.1258324,19.8167734 L63.9340462,19.8167734 L63.9340462,18.823913 C63.3533166,19.6294413 62.3229897,20.1352381 60.8430657,20.1352381 C59.0259438,20.1352381 57.4148873,19.348443 57.4148873,17.4001886 C57.4148873,15.1896692 59.3818749,14.4216074 61.5549279,14.0282099 L63.8029137,13.6160791 L63.8029137,13.3912805 C63.8029137,12.4546198 63.1097848,11.9300897 62.0045251,11.9300897 C60.6932,11.9300897 60.0188042,12.5295526 59.0259438,13.4849466 L57.4898201,12.0799555 C58.6887459,10.6562311 60.0750039,9.92563568 61.9670586,9.92563568 Z M61.2551964,18.1869837 C62.4915887,18.1869837 63.8029137,17.5875208 63.8029137,15.9202646 L63.8029137,15.3582682 L62.1918572,15.695466 C60.7493996,15.9951975 59.7940056,16.3323954 59.7940056,17.2315897 C59.7940056,17.8310526 60.3372689,18.1869837 61.2551964,18.1869837 Z M70.7342034,6.51619048 L70.7342034,19.8167734 L68.2988854,19.8167734 L68.2988854,6.51619048 L70.7342034,6.51619048 Z M75.3800409,6.51619048 L75.3800409,19.8167734 L72.9447229,19.8167734 L72.9447229,6.51619048 L75.3800409,6.51619048 Z M79.9884119,6.51619048 L79.9884119,8.80164276 L77.5530939,8.80164276 L77.5530939,6.51619048 L79.9884119,6.51619048 Z M79.9884119,10.2441003 L79.9884119,19.8167734 L77.5530939,19.8167734 L77.5530939,10.2441003 L79.9884119,10.2441003 Z M87.2756327,9.92563568 C89.5048853,9.92563568 90.7038111,11.3118936 90.7038111,13.260148 L90.7038111,19.8167734 L88.2684931,19.8167734 L88.2684931,13.9907434 C88.2684931,12.735618 87.650297,12.0237558 86.4888376,12.0237558 C85.3648447,12.0237558 84.5593164,12.8480173 84.5593164,14.0469431 L84.5593164,19.8167734 L82.1239984,19.8167734 L82.1239984,10.2441003 L84.3907175,10.2441003 L84.3907175,11.3306268 C84.9901804,10.4688989 85.9643076,9.92563568 87.2756327,9.92563568 Z M97.9910319,9.92563568 C100.220285,9.92563568 101.41921,11.3118936 101.41921,13.260148 L101.41921,19.8167734 L98.9838923,19.8167734 L98.9838923,13.9907434 C98.9838923,12.735618 98.3656962,12.0237558 97.2042369,12.0237558 C96.0802439,12.0237558 95.2747157,12.8480173 95.2747157,14.0469431 L95.2747157,19.8167734 L92.8393977,19.8167734 L92.8393977,10.2441003 L95.1061167,10.2441003 L95.1061167,11.3306268 C95.7055796,10.4688989 96.6797068,9.92563568 97.9910319,9.92563568 Z" id="Tallinn"></path>
                <path d="M50.7203843,26.4209524 C52.7053467,26.4209524 54.1021721,27.0090894 55.6460317,28.3323977 L54.6535505,29.5086717 C53.2199666,28.2588805 52.1539683,27.8729156 50.7203843,27.8729156 C48.9192147,27.8729156 47.7245614,28.7735004 47.7245614,30.0049123 C47.7245614,31.3833584 48.9192147,31.7141855 51.3085213,32.2471846 C54.5248956,33.0007352 55.8298246,33.90132 55.8298246,35.9965581 C55.8298246,38.4226232 53.8448622,40.04 51.0144528,40.04 C48.8640769,40.04 47.3753551,39.3783459 45.5190476,37.7793484 L46.5299081,36.5846951 C48.4597327,38.2020718 49.6176274,38.5696575 51.0328321,38.5696575 C52.8156224,38.5696575 54.1389307,37.6506934 54.1389307,36.0884545 C54.1389307,34.5078363 52.723726,34.1770092 50.4998329,33.6623893 C47.2099415,32.9088388 46.0704261,32.0817711 46.0704261,30.0416708 C46.0704261,27.8545363 48.1656642,26.4209524 50.7203843,26.4209524 Z M60.5532999,27.0274687 L60.5532999,28.9205347 L59.0094403,28.9205347 L59.0094403,27.0274687 L60.5532999,27.0274687 Z M63.8064327,27.0274687 L63.8064327,28.9205347 L62.2625731,28.9205347 L62.2625731,27.0274687 L63.8064327,27.0274687 Z M63.6777778,30.703325 L65.258396,30.703325 L65.258396,39.7459315 L63.7880535,39.7459315 L63.7880535,38.6247953 C63.2550543,39.5070008 62.2625731,40.0032414 61.0495405,40.0032414 C58.7521303,40.0032414 57.8331662,38.6799332 57.8331662,37.0441771 L57.8331662,30.703325 L59.4137845,30.703325 L59.4137845,36.6582122 C59.4137845,37.9447619 60.0754386,38.6431746 61.3068505,38.6431746 C62.6301587,38.6431746 63.6777778,37.8344862 63.6777778,36.2171094 L63.6777778,30.703325 Z M70.808939,30.446015 C72.2792815,30.446015 73.3085213,30.7952214 74.5215539,31.7693233 L73.6577277,32.8353216 C72.4814536,31.9347368 71.7830409,31.7325647 70.808939,31.7325647 C69.5775272,31.7325647 68.8239766,32.3023225 68.8239766,33.0742523 C68.8239766,33.8645614 69.5959064,34.0483542 71.2500418,34.4159398 C73.6025898,34.948939 74.6685881,35.5922139 74.6685881,37.1912114 C74.6685881,38.863726 73.2350042,40.0032414 71.0478697,40.0032414 C69.4488722,40.0032414 68.3093567,39.580518 66.8757728,38.3123475 L67.8131161,37.2831078 C69.1548037,38.4042439 69.9634921,38.6983124 71.066249,38.6983124 C72.242523,38.6983124 73.1247285,38.1653133 73.1247285,37.2647285 C73.1247285,36.2722473 72.0403509,35.9965581 70.5883876,35.6841103 C68.1807018,35.1694904 67.2984962,34.6364912 67.2984962,33.1293901 C67.2984962,31.5487719 68.7137009,30.446015 70.808939,30.446015 Z M81.2667502,38.3491061 L81.5056809,39.5988972 C80.8440267,39.8378279 80.1823726,39.911345 79.6493734,39.911345 C77.921721,39.911345 77.3152047,39.0842774 77.3152047,37.6506934 L77.3152047,31.8979783 L75.6243108,31.8979783 L75.6243108,30.703325 L77.3152047,30.703325 L77.3152047,27.6707435 L78.8958229,27.6707435 L78.8958229,30.703325 L81.3402673,30.703325 L81.3402673,31.8979783 L78.8958229,31.8979783 L78.8958229,37.4669006 C78.8958229,38.275589 79.2082707,38.5696575 79.9618212,38.5696575 C80.2926483,38.5696575 80.6602339,38.5145196 81.2667502,38.3491061 Z M89.9969089,37.1728321 L90.9342523,38.1285547 C89.610944,39.5437594 88.4714286,40.0032414 87.001086,40.0032414 C84.2441938,40.0032414 82.5165414,38.1101754 82.5165414,35.2797661 C82.5165414,32.4493567 84.189056,30.446015 86.8356725,30.446015 C89.4455305,30.446015 90.915873,32.1369089 90.915873,34.8019048 C90.915873,34.9856976 90.8974937,35.3349039 90.8791145,35.5003175 L84.0971596,35.5003175 C84.189056,37.1728321 85.0528822,38.6799332 87.0194653,38.6799332 C88.1773601,38.6799332 88.8573935,38.2572097 89.9969089,37.1728321 Z M86.8172932,31.7141855 C85.3469507,31.7141855 84.3728488,32.6515288 84.1339181,34.3240434 L89.3536341,34.3240434 C89.280117,32.7618045 88.3979114,31.7141855 86.8172932,31.7141855 Z M99.8114453,37.1728321 L100.748789,38.1285547 C99.4254804,39.5437594 98.2859649,40.0032414 96.8156224,40.0032414 C94.0587302,40.0032414 92.3310777,38.1101754 92.3310777,35.2797661 C92.3310777,32.4493567 94.0035923,30.446015 96.6502089,30.446015 C99.2600668,30.446015 100.730409,32.1369089 100.730409,34.8019048 C100.730409,34.9856976 100.71203,35.3349039 100.693651,35.5003175 L93.9116959,35.5003175 C94.0035923,37.1728321 94.8674185,38.6799332 96.8340017,38.6799332 C97.9918964,38.6799332 98.6719298,38.2572097 99.8114453,37.1728321 Z M96.6318296,31.7141855 C95.1614871,31.7141855 94.1873851,32.6515288 93.9484545,34.3240434 L99.1681704,34.3240434 C99.0946533,32.7618045 98.2124478,31.7141855 96.6318296,31.7141855 Z M112.162322,30.446015 C114.184043,30.446015 115.176525,31.7325647 115.176525,33.4418379 L115.176525,39.7459315 L113.595906,39.7459315 L113.595906,33.8829407 C113.595906,32.5780117 113.026149,31.7877026 111.794737,31.7877026 C110.526566,31.7877026 109.717878,32.7434252 109.717878,34.0667335 L109.717878,39.7459315 L108.13726,39.7459315 L108.13726,33.8829407 C108.13726,32.5780117 107.567502,31.7877026 106.33609,31.7877026 C105.159816,31.7877026 104.277611,32.6515288 104.277611,34.0667335 L104.277611,39.7459315 L102.696992,39.7459315 L102.696992,30.703325 L104.185714,30.703325 L104.185714,31.7877026 C104.718713,30.9238764 105.56416,30.446015 106.777193,30.446015 C108.063743,30.446015 108.945948,31.034152 109.387051,31.9163576 C109.938429,31.0525313 110.820635,30.446015 112.162322,30.446015 Z M119.201587,27.0274687 L119.201587,28.9205347 L117.620969,28.9205347 L117.620969,27.0274687 L119.201587,27.0274687 Z M119.201587,30.703325 L119.201587,39.7459315 L117.620969,39.7459315 L117.620969,30.703325 L119.201587,30.703325 Z M130.174018,30.446015 C132.379532,30.446015 133.408772,31.8612197 133.408772,33.5521136 L133.408772,39.7459315 L131.828154,39.7459315 L131.828154,34.0483542 C131.828154,32.5596324 131.092982,31.7877026 129.751295,31.7877026 C128.446366,31.7877026 127.417126,32.7985631 127.417126,34.1402506 L127.417126,39.7459315 L125.836508,39.7459315 L125.836508,30.703325 L127.32523,30.703325 L127.32523,31.8612197 C127.931746,30.9238764 128.960986,30.446015 130.174018,30.446015 Z M137.433835,27.0274687 L137.433835,28.9205347 L135.853216,28.9205347 L135.853216,27.0274687 L137.433835,27.0274687 Z M137.433835,30.703325 L137.433835,39.7459315 L135.853216,39.7459315 L135.853216,30.703325 L137.433835,30.703325 Z M149.361988,30.446015 C151.383709,30.446015 152.37619,31.7325647 152.37619,33.4418379 L152.37619,39.7459315 L150.795572,39.7459315 L150.795572,33.8829407 C150.795572,32.5780117 150.225815,31.7877026 148.994403,31.7877026 C147.726232,31.7877026 146.917544,32.7434252 146.917544,34.0667335 L146.917544,39.7459315 L145.336926,39.7459315 L145.336926,33.8829407 C145.336926,32.5780117 144.767168,31.7877026 143.535756,31.7877026 C142.359482,31.7877026 141.477277,32.6515288 141.477277,34.0667335 L141.477277,39.7459315 L139.896658,39.7459315 L139.896658,30.703325 L141.38538,30.703325 L141.38538,31.7877026 C141.918379,30.9238764 142.763826,30.446015 143.976859,30.446015 C145.263409,30.446015 146.145614,31.034152 146.586717,31.9163576 C147.138095,31.0525313 148.020301,30.446015 149.361988,30.446015 Z M156.401253,27.0274687 L156.401253,28.9205347 L154.820635,28.9205347 L154.820635,27.0274687 L156.401253,27.0274687 Z M156.401253,30.703325 L156.401253,39.7459315 L154.820635,39.7459315 L154.820635,30.703325 L156.401253,30.703325 Z" id="Süsteemi-nimi"></path>
            </g>
        </g>
    </g>
</svg>