<?xml version="1.0" encoding="UTF-8"?>
<svg width="308px" height="44px" viewBox="0 0 308 44" version="1.1" xmlns="http://www.w3.org/2000/svg" xmlns:xlink="http://www.w3.org/1999/xlink">
    <defs></defs>
    <g id="Page-1" stroke="none" stroke-width="1" fill-rule="evenodd">
        <g id="Logo" transform="translate(-439.000000, -860.000000)" fill="#0072CE">
            <g id="Group-7-Copy" transform="translate(439.142857, 860.000000)">
                <g id="Tallinn_logo_RGB_valge" fill-rule="nonzero">
                    <g id="Logod._Valge">
                        <g id="Tallinna_logo._Valge">
                            <g id="Tallinna_logo">
                                <path d="M22.64722,17.4671 C19.06565,16.49056 17.27487,15.26989 13.16422,14.5375 C8.97215,13.7644 5.06499,14.00855 0.09963,14.5375 L0.09963,19.5015 C5.75688,18.64704 13.89681,17.46706 20.12386,18.60634 C25.21131,19.5422 25.659,21.41388 30.29877,22.4311 L30.29877,18.56571 C27.7173338,18.462801 25.1533267,18.0946607 22.64722,17.4671 Z" id="Shape"></path>
                                <path d="M30.29875,24.8725 C26.75787,22.43114 23.46121,22.30908 20.08313,22.34979 C13.28629,22.47185 8.15813,23.32631 0.09961,24.66906 L0.09961,28.63969 C0.0962748541,29.0629954 0.116081067,29.4861667 0.15894,29.90731 C6.03481,28.85514 11.05506,28.12651 13.20494,27.80211 C19.35059,26.82557 25.69973,25.84903 30.2988,26.62211 L30.29875,24.8725 Z" id="Shape"></path>
                                <path d="M1.53787,34.14756 C1.82704766,34.6536895 2.15238657,35.1382823 2.51135,35.59756 C5.86673,39.84421 14.8842,43.19962 15.19916,43.30463 C15.51376,43.19977 24.53153,39.84431 27.88699,35.59756 C28.5727776,34.7255661 29.1303166,33.7599651 29.54267,32.73009 C29.8268255,31.9914872 30.0366168,31.2263882 30.16893,30.44615 C30.20288,30.23015 30.22793,30.02695 30.24645,29.83815 C29.36525,29.95449 2.28025,34.03783 1.53787,34.14756 Z" id="Shape"></path>
                                <path d="M12.79791,9.08519 C8.97214,8.6783 6.16391,7.74244 0.09962,6.84728 L0.09962,10.1838 C3.75470747,10.0365464 7.40977078,10.4761223 10.92572,11.4858 C12.10601,11.81133 14.4259,12.50305 15.32129,12.74717 C20.04245,14.04917 26.43229,14.04917 30.29876,14.49679 L30.29876,10.59068 C24.8043,9.61414 16.94927,9.53275 12.79791,9.08519 Z" id="Shape"></path>
                                <path d="M15.19947,0.78463 L15.19919,0.78463 C10.1125275,0.732026244 5.03946905,1.31985928 0.09962,2.53427 L0.09962,4.08044 L30.29876,6.68454 L30.29876,2.53427 C25.3590017,1.31988357 20.2860388,0.732050715 15.19947,0.78463 Z" id="Shape"></path>
                            </g>
                        </g>
                    </g>
                </g>
                <path d="M56.1972283,6.51619048 L56.1972283,8.76417633 L52.1883202,8.76417633 L52.1883202,19.8167734 L49.56567,19.8167734 L49.56567,8.76417633 L45.5567619,8.76417633 L45.5567619,6.51619048 L56.1972283,6.51619048 Z M61.9670586,9.92563568 C64.7208413,9.92563568 66.1258324,11.3306268 66.1258324,13.3538141 L66.1258324,19.8167734 L63.9340462,19.8167734 L63.9340462,18.823913 C63.3533166,19.6294413 62.3229897,20.1352381 60.8430657,20.1352381 C59.0259438,20.1352381 57.4148873,19.348443 57.4148873,17.4001886 C57.4148873,15.1896692 59.3818749,14.4216074 61.5549279,14.0282099 L63.8029137,13.6160791 L63.8029137,13.3912805 C63.8029137,12.4546198 63.1097848,11.9300897 62.0045251,11.9300897 C60.6932,11.9300897 60.0188042,12.5295526 59.0259438,13.4849466 L57.4898201,12.0799555 C58.6887459,10.6562311 60.0750039,9.92563568 61.9670586,9.92563568 Z M61.2551964,18.1869837 C62.4915887,18.1869837 63.8029137,17.5875208 63.8029137,15.9202646 L63.8029137,15.3582682 L62.1918572,15.695466 C60.7493996,15.9951975 59.7940056,16.3323954 59.7940056,17.2315897 C59.7940056,17.8310526 60.3372689,18.1869837 61.2551964,18.1869837 Z M70.7342034,6.51619048 L70.7342034,19.8167734 L68.2988854,19.8167734 L68.2988854,6.51619048 L70.7342034,6.51619048 Z M75.3800409,6.51619048 L75.3800409,19.8167734 L72.9447229,19.8167734 L72.9447229,6.51619048 L75.3800409,6.51619048 Z M79.9884119,6.51619048 L79.9884119,8.80164276 L77.5530939,8.80164276 L77.5530939,6.51619048 L79.9884119,6.51619048 Z M79.9884119,10.2441003 L79.9884119,19.8167734 L77.5530939,19.8167734 L77.5530939,10.2441003 L79.9884119,10.2441003 Z M87.2756327,9.92563568 C89.5048853,9.92563568 90.7038111,11.3118936 90.7038111,13.260148 L90.7038111,19.8167734 L88.2684931,19.8167734 L88.2684931,13.9907434 C88.2684931,12.735618 87.650297,12.0237558 86.4888376,12.0237558 C85.3648447,12.0237558 84.5593164,12.8480173 84.5593164,14.0469431 L84.5593164,19.8167734 L82.1239984,19.8167734 L82.1239984,10.2441003 L84.3907175,10.2441003 L84.3907175,11.3306268 C84.9901804,10.4688989 85.9643076,9.92563568 87.2756327,9.92563568 Z M97.9910319,9.92563568 C100.220285,9.92563568 101.41921,11.3118936 101.41921,13.260148 L101.41921,19.8167734 L98.9838923,19.8167734 L98.9838923,13.9907434 C98.9838923,12.735618 98.3656962,12.0237558 97.2042369,12.0237558 C96.0802439,12.0237558 95.2747157,12.8480173 95.2747157,14.0469431 L95.2747157,19.8167734 L92.8393977,19.8167734 L92.8393977,10.2441003 L95.1061167,10.2441003 L95.1061167,11.3306268 C95.7055796,10.4688989 96.6797068,9.92563568 97.9910319,9.92563568 Z" id="Tallinn"></path>
                <text id="Avalike-kogunemiste" font-family="LabGrotesque-Regular, Lab Grotesque" font-size="18" font-weight="normal">
                    <tspan x="45" y="39">Avalike kogunemiste infosüsteem</tspan>
                </text>
            </g>
        </g>
    </g>
</svg>